<svg width="32" height="32" viewBox="0 0 32 32" fill="none" xmlns="http://www.w3.org/2000/svg">
<path d="M26.7465 10.4713C26.5124 10.6913 26.2616 10.9113 25.9774 11.1651L25.5092 11.5712C24.2385 12.6203 22.9678 13.5848 21.6804 14.4985L20.9113 15.0569C20.6578 16.5835 19.8467 17.9578 18.6389 18.9075C17.4311 19.8572 15.9147 20.3128 14.3905 20.184C14.1893 20.1867 13.9882 20.1754 13.7886 20.1502L12.4845 19.9979L12.3005 18.6781C12.1198 17.726 12.1458 16.7456 12.3768 15.8048C12.6078 14.8639 13.0382 13.9852 13.6381 13.2295C14.5715 12.1861 15.827 11.494 17.1995 11.2666L17.7679 10.4713C18.3364 9.6591 19.2727 8.3731 20.51 6.86712C20.7775 6.51177 21.1119 6.10567 21.4797 5.68264C21.0116 5.37806 20.5434 5.0904 20.0753 4.81966C17.4107 3.158 14.2424 2.52712 11.1544 3.04331C8.06641 3.55951 5.26687 5.18798 3.27181 7.62857C-0.172484 12.0957 0.329111 17.9166 4.57596 22.4176C6.31639 24.4448 8.45893 26.0785 10.8643 27.2126C13.2696 28.3466 15.8839 28.9556 18.537 28.9999C20.1029 29.0043 21.6616 28.7879 23.1684 28.3569C23.4666 28.2795 23.7387 28.1224 23.9563 27.9021C24.1739 27.6819 24.3292 27.4065 24.4057 27.1048C24.4795 26.7966 24.4736 26.4743 24.3887 26.1691C24.3037 25.8639 24.1426 25.5859 23.9208 25.3619C23.0032 24.5518 22.3458 23.4827 22.033 22.2917C21.7201 21.1007 21.7662 19.8423 22.1652 18.6781C22.7672 16.9352 24.4559 16.2922 27.1812 16.7829C27.5011 16.8392 27.8301 16.8051 28.1321 16.6843C28.434 16.5635 28.6972 16.3607 28.8925 16.0983C29.0879 15.8358 29.2079 15.5239 29.2393 15.1969C29.2707 14.8698 29.2123 14.5403 29.0706 14.2447C28.4515 12.8953 27.671 11.628 26.7465 10.4713ZM15.5943 7.93315C15.6577 7.78205 15.7484 7.6443 15.8619 7.52704C15.9794 7.40626 16.1223 7.31373 16.2799 7.2563C16.5065 7.15945 16.7566 7.13347 16.998 7.18172C17.2394 7.22997 17.4609 7.35024 17.6342 7.52704C17.7527 7.64365 17.849 7.7813 17.9184 7.93315C18.0182 8.16586 18.0444 8.4241 17.9935 8.67249C17.9426 8.92088 17.8171 9.14728 17.6342 9.32068C17.5212 9.43835 17.386 9.53192 17.2367 9.59585C17.0873 9.65979 16.9269 9.6928 16.7647 9.69294C16.5979 9.69362 16.4327 9.65904 16.2799 9.59142C16.1254 9.52762 15.9838 9.43587 15.8619 9.32068C15.7453 9.203 15.6528 9.06322 15.5897 8.90933C15.5266 8.75545 15.4941 8.59048 15.494 8.42386C15.4934 8.255 15.5275 8.08787 15.5943 7.93315ZM8.25432 18.8303C8.01766 19.0658 7.70002 19.1992 7.36817 19.2026C7.20354 19.2026 7.04053 19.1696 6.88847 19.1058C6.73642 19.0419 6.5983 18.9483 6.48202 18.8303C6.2757 18.6238 6.14646 18.3513 6.11627 18.0591C6.08608 17.767 6.15681 17.4733 6.31643 17.228C6.47605 16.9827 6.7147 16.801 6.99179 16.7136C7.26889 16.6263 7.56732 16.6388 7.83633 16.749C7.99282 16.8088 8.13521 16.901 8.25432 17.0198C8.49018 17.2606 8.62251 17.586 8.62251 17.9251C8.62251 18.2641 8.49018 18.5895 8.25432 18.8303ZM8.25432 13.1279C8.01766 13.3634 7.70002 13.4968 7.36817 13.5002C7.20354 13.5001 7.04053 13.4672 6.88847 13.4034C6.73642 13.3395 6.5983 13.2459 6.48202 13.1279C6.24616 12.8871 6.11384 12.5617 6.11384 12.2226C6.11384 11.8836 6.24616 11.5582 6.48202 11.3174C6.72199 11.0892 7.03889 10.9621 7.36817 10.9621C7.69745 10.9621 8.01435 11.0892 8.25432 11.3174C8.49018 11.5582 8.62251 11.8836 8.62251 12.2226C8.62251 12.5617 8.49018 12.8871 8.25432 13.1279ZM10.2273 9.32068C10.1107 9.203 10.0182 9.06322 9.95512 8.90933C9.892 8.75545 9.85949 8.59048 9.85943 8.42386C9.85877 8.255 9.89294 8.08787 9.95975 7.93315C10.0392 7.74056 10.1645 7.57088 10.3245 7.43924C10.4845 7.30759 10.6742 7.21809 10.8767 7.17871C11.0792 7.13933 11.2882 7.15131 11.485 7.21356C11.6818 7.27582 11.8603 7.38642 12.0046 7.5355C12.1231 7.65211 12.2195 7.78976 12.2888 7.94161C12.3556 8.09633 12.3898 8.26347 12.3891 8.43232C12.3828 8.77088 12.2446 9.09319 12.0046 9.32914C11.8893 9.4484 11.7513 9.54285 11.5991 9.60682C11.4468 9.67079 11.2833 9.70296 11.1184 9.7014C10.7837 9.69709 10.4638 9.56045 10.2273 9.32068ZM18.1542 12.8589L19.3396 14.0806C19.0704 19.0097 13.9558 18.4699 13.9558 18.4699C13.2552 12.913 18.1542 12.8589 18.1542 12.8589ZM29.6056 5.0904C28.4114 6.56976 27.091 7.94 25.6597 9.18531C25.2584 9.55757 24.8404 9.91292 24.4057 10.3021C23.3356 11.182 22.1151 12.1296 20.7273 13.111L19.1222 11.4527C19.7576 10.5559 20.6772 9.32068 21.7974 7.95007C22.1151 7.52704 22.4662 7.10401 22.8508 6.66406C24.1061 5.18707 25.446 3.78585 26.8635 2.46763C27.219 2.15648 27.6759 1.98999 28.1457 2.00047C28.6155 2.01094 29.0648 2.19761 29.4063 2.52429C29.7479 2.85098 29.9573 3.29438 29.9942 3.76852C30.031 4.24265 29.8925 4.71373 29.6056 5.0904Z" fill="#FF90E8"/>
<path fill-rule="evenodd" clip-rule="evenodd" d="M21.7974 7.95007C20.6772 9.32068 19.7576 10.5559 19.1222 11.4527L20.7273 13.111C22.1151 12.1296 23.3356 11.182 24.4057 10.3021C24.5697 10.1553 24.7313 10.0133 24.8906 9.87334C25.1534 9.64238 25.4098 9.41713 25.6597 9.18531C27.091 7.94 28.4114 6.56976 29.6056 5.0904C29.8925 4.71373 30.031 4.24265 29.9942 3.76852C29.9573 3.29438 29.7479 2.85098 29.4063 2.52429C29.0648 2.19761 28.6155 2.01094 28.1457 2.00047C27.6759 1.98999 27.219 2.15648 26.8635 2.46763C25.446 3.78585 24.1061 5.18707 22.8508 6.66406C22.4662 7.10401 22.1151 7.52704 21.7974 7.95007ZM27.5316 3.21198C26.1475 4.50004 24.839 5.86894 23.6127 7.31169L23.6038 7.32224C23.2291 7.75087 22.895 8.15379 22.597 8.55056L22.5847 8.56699L22.5717 8.58291C21.7265 9.61699 20.9976 10.5724 20.4226 11.3584L20.8456 11.7953C21.921 11.0122 22.8876 10.2553 23.7545 9.5429C23.9286 9.38723 24.091 9.24458 24.2471 9.10751C24.5005 8.88499 24.7371 8.67716 24.9796 8.4522L24.9913 8.44135L25.0033 8.43088C26.3862 7.22772 27.6624 5.90409 28.8171 4.47515C28.9498 4.29626 29.0148 4.07251 28.9972 3.84594C28.9793 3.61549 28.8776 3.40234 28.7151 3.24695C28.553 3.09185 28.3419 3.00509 28.1234 3.00022C27.909 2.99544 27.6985 3.0698 27.5316 3.21198ZM13.6381 13.2295C14.5715 12.1861 15.827 11.494 17.1995 11.2666L17.7679 10.4713C17.7755 10.4605 17.7831 10.4496 17.7909 10.4386C17.9056 10.275 18.0347 10.0929 18.1778 9.89423C18.185 9.88413 18.1923 9.87398 18.1997 9.86379C18.4149 9.56534 18.661 9.23042 18.9362 8.8656C18.9531 8.84319 18.9701 8.82066 18.9872 8.79802C19.4254 8.21882 19.9352 7.5667 20.51 6.86712C20.6088 6.73592 20.7166 6.59781 20.832 6.45448C21.029 6.2096 21.2477 5.94948 21.4797 5.68264C21.1942 5.49688 20.9087 5.31742 20.6232 5.14425C20.4405 5.03348 20.2579 4.92528 20.0753 4.81966C17.4107 3.158 14.2424 2.52712 11.1544 3.04331C8.06641 3.55951 5.26687 5.18798 3.27181 7.62857C-0.172484 12.0957 0.329111 17.9166 4.57596 22.4176C6.31639 24.4448 8.45893 26.0785 10.8643 27.2126C13.2696 28.3466 15.8839 28.9556 18.537 28.9999C20.1029 29.0043 21.6616 28.7879 23.1684 28.3569C23.4666 28.2795 23.7387 28.1224 23.9563 27.9021C24.1739 27.6819 24.3292 27.4065 24.4057 27.1048C24.4795 26.7966 24.4736 26.4743 24.3887 26.1691C24.3037 25.8639 24.1426 25.5859 23.9208 25.3619C23.0032 24.5518 22.3458 23.4827 22.033 22.2917C21.7201 21.1007 21.7662 19.8423 22.1652 18.6781C22.7672 16.9352 24.4559 16.2922 27.1812 16.7829C27.5011 16.8392 27.8301 16.8051 28.1321 16.6843C28.434 16.5635 28.6972 16.3607 28.8925 16.0983C29.0879 15.8358 29.2079 15.5239 29.2393 15.1969C29.2707 14.8698 29.2123 14.5403 29.0706 14.2447C28.5917 13.2009 28.0162 12.2062 27.3522 11.2738C27.1578 11.0009 26.9559 10.7333 26.7465 10.4713C26.5628 10.6439 26.3689 10.8165 26.1565 11.0055C26.1063 11.0502 26.055 11.0958 26.0027 11.1425C25.9943 11.15 25.9858 11.1575 25.9774 11.1651L25.5092 11.5712C24.2385 12.6203 22.9678 13.5848 21.6804 14.4985L20.9113 15.0569C20.6578 16.5835 19.8467 17.9578 18.6389 18.9075C17.4311 19.8572 15.9147 20.3128 14.3905 20.184C14.1893 20.1867 13.9882 20.1754 13.7886 20.1502L12.4845 19.9979L12.3005 18.6781C12.1198 17.726 12.1458 16.7456 12.3768 15.8048C12.6078 14.8639 13.0382 13.9852 13.6381 13.2295ZM11.3134 18.8396C11.1111 17.7546 11.1425 16.6382 11.4056 15.5664C11.6708 14.4863 12.1651 13.4767 12.8549 12.6077L12.8732 12.5847L12.8928 12.5628C13.7298 11.6271 14.791 10.9335 15.9669 10.544C15.94 10.5335 15.9133 10.5225 15.8868 10.511C15.6235 10.4006 15.3825 10.2435 15.1751 10.0475L15.163 10.0362L15.1514 10.0244C14.9423 9.81331 14.7771 9.56325 14.6645 9.28881C14.5522 9.01494 14.4944 8.7218 14.494 8.42599C14.4931 8.12219 14.5543 7.82118 14.6741 7.54179C14.7852 7.27833 14.9441 7.03741 15.1432 6.83165L15.1452 6.82961C15.3608 6.60807 15.6223 6.43609 15.9117 6.32633C16.3172 6.15882 16.7632 6.11499 17.194 6.20112C17.6306 6.28839 18.0299 6.50472 18.342 6.82059C18.5201 6.99722 18.6687 7.20093 18.7826 7.42375C19.0736 7.05133 19.3879 6.65793 19.724 6.24848C19.8038 6.14292 19.8884 6.03396 19.9771 5.92236C19.8429 5.84187 19.7087 5.76286 19.5746 5.68533L19.5602 5.677L19.5461 5.66819C17.0877 4.13507 14.1661 3.55375 11.3193 4.02963C8.477 4.50475 5.89717 6.00238 4.05508 8.25042C0.959784 12.2757 1.35132 17.5428 5.3033 21.7313L5.3194 21.7484L5.33468 21.7662C6.98385 23.6871 9.01334 25.2343 11.2907 26.308C13.566 27.3808 16.0381 27.9571 18.5468 28C20.0162 28.0034 21.4791 27.8 22.8935 27.3955L22.9051 27.3921L22.9169 27.3891C23.0397 27.3572 23.1532 27.2921 23.245 27.1993C23.3353 27.1078 23.4012 26.9928 23.4348 26.8653C23.4673 26.7241 23.4641 26.5767 23.4253 26.4371C23.3882 26.3039 23.3202 26.183 23.2282 26.0842C22.177 25.1454 21.4251 23.914 21.0658 22.5458C20.7029 21.1643 20.7563 19.7047 21.2193 18.3538L21.22 18.3516C21.6149 17.2082 22.3987 16.3832 23.5229 15.9577C24.5973 15.5509 25.9038 15.5371 27.3562 15.7983C27.3569 15.7984 27.3577 15.7986 27.3584 15.7987L27.1812 16.7829L27.3546 15.798C27.3552 15.7981 27.3557 15.7982 27.3562 15.7983C27.492 15.8219 27.6318 15.8074 27.7606 15.7559C27.8901 15.7041 28.0045 15.6165 28.0904 15.5012C28.1763 15.3858 28.2298 15.2474 28.2439 15.1012C28.2579 14.955 28.2317 14.8082 28.1689 14.6771L28.1652 14.6694L28.1616 14.6617C27.7248 13.7094 27.2029 12.8005 26.603 11.9462L26.1553 12.3346L26.1459 12.3423C24.8561 13.4072 23.5673 14.3854 22.2637 15.3108L21.8164 15.6356C21.4527 17.2399 20.5519 18.6755 19.257 19.6936C17.8638 20.7891 16.1159 21.3211 14.3544 21.1844C14.125 21.1853 13.8958 21.1715 13.6682 21.1429L11.6007 20.9015L11.3134 18.8396ZM17.1344 9.63424C17.169 9.62302 17.2031 9.61022 17.2367 9.59585C17.386 9.53192 17.5212 9.43835 17.6342 9.32068C17.8171 9.14728 17.9426 8.92088 17.9935 8.67249C18.0105 8.58956 18.0189 8.50554 18.0188 8.42173C18.0187 8.25451 17.9849 8.08816 17.9184 7.93315C17.849 7.7813 17.7527 7.64365 17.6342 7.52704C17.4609 7.35024 17.2394 7.22997 16.998 7.18172C16.7566 7.13347 16.5065 7.15945 16.2799 7.2563C16.1223 7.31373 15.9794 7.40626 15.8619 7.52704C15.7484 7.6443 15.6577 7.78205 15.5943 7.93315C15.5275 8.08787 15.4934 8.255 15.494 8.42386C15.4941 8.59048 15.5266 8.75545 15.5897 8.90933C15.6528 9.06322 15.7453 9.203 15.8619 9.32068C15.9838 9.43587 16.1254 9.52762 16.2799 9.59142C16.4327 9.65904 16.5979 9.69362 16.7647 9.69294C16.8904 9.69283 17.0151 9.67296 17.1344 9.63424ZM14.494 8.42599C14.494 8.42539 14.494 8.42479 14.494 8.42418L15.494 8.42386L14.494 8.4278C14.494 8.4272 14.494 8.4266 14.494 8.42599ZM13.9558 18.4699C13.9558 18.4699 19.0704 19.0097 19.3396 14.0806L18.1542 12.8589C18.1542 12.8589 13.2552 12.913 13.9558 18.4699ZM18.1707 13.8587L18.1695 13.8588ZM17.773 13.902C17.7194 13.9108 17.6617 13.9213 17.6005 13.9338C17.2286 14.01 16.7594 14.1564 16.3209 14.4294C15.8912 14.697 15.4917 15.0847 15.2252 15.6658C15.0257 16.1006 14.8827 16.6833 14.8873 17.4659C15.276 17.4325 15.7422 17.3536 16.2025 17.1848C16.7337 16.99 17.2294 16.6863 17.6059 16.2188C17.924 15.8237 18.1959 15.2637 18.3025 14.4478L17.773 13.902ZM8.95962 19.5393C8.5393 19.9574 7.97271 20.1965 7.37833 20.2026L7.36784 20.2027C7.07007 20.2026 6.77552 20.143 6.50117 20.0277C6.22684 19.9125 5.97844 19.744 5.76987 19.5324C5.40304 19.163 5.17497 18.6787 5.12157 18.1619C5.06794 17.6431 5.19336 17.1205 5.47825 16.6826C5.7633 16.2446 6.19124 15.9174 6.69122 15.7599C7.18755 15.6035 7.72202 15.6246 8.20425 15.8191C8.48797 15.9292 8.74534 16.0971 8.9605 16.3117L8.96882 16.3201C9.38893 16.749 9.62251 17.3261 9.62251 17.9251C9.62251 18.524 9.38888 19.1011 8.96877 19.53L8.95962 19.5393ZM7.83633 16.749C7.56732 16.6388 7.26889 16.6263 6.99179 16.7136C6.7147 16.801 6.47605 16.9827 6.31643 17.228C6.15681 17.4733 6.08608 17.767 6.11627 18.0591C6.14646 18.3513 6.2757 18.6238 6.48202 18.8303C6.5983 18.9483 6.73642 19.0419 6.88847 19.1058C7.04053 19.1696 7.20354 19.2026 7.36817 19.2026C7.70003 19.1992 8.01766 19.0658 8.25432 18.8303C8.49018 18.5895 8.62251 18.2641 8.62251 17.9251C8.62251 17.586 8.49018 17.2606 8.25432 17.0198C8.13521 16.901 7.99282 16.8088 7.83633 16.749ZM8.95962 13.8368C8.5393 14.255 7.97272 14.4941 7.37833 14.5001L7.36784 14.5002C7.07007 14.5001 6.77552 14.4406 6.50117 14.3253C6.22684 14.2101 5.97844 14.0415 5.76987 13.83L5.76757 13.8276C5.34747 13.3986 5.11384 12.8216 5.11384 12.2226C5.11384 11.6237 5.34747 11.0467 5.76757 10.6177L5.78003 10.605L5.79293 10.5927C6.21761 10.1889 6.78077 9.96215 7.36817 9.96215C7.95558 9.96215 8.51874 10.1889 8.94342 10.5927L8.95632 10.605L8.96877 10.6177C9.38888 11.0467 9.62251 11.6237 9.62251 12.2226C9.62251 12.8216 9.38888 13.3986 8.96877 13.8276L8.95962 13.8368ZM12.2888 7.94161C12.3556 8.09633 12.3898 8.26347 12.3891 8.43232C12.3828 8.77087 12.2446 9.09319 12.0046 9.32914C11.8893 9.4484 11.7513 9.54285 11.5991 9.60682C11.4468 9.67079 11.2833 9.70296 11.1184 9.7014C10.7837 9.69709 10.4638 9.56045 10.2273 9.32068C10.1107 9.203 10.0182 9.06322 9.95512 8.90933C9.892 8.75545 9.85949 8.59048 9.85943 8.42386C9.85877 8.255 9.89293 8.08787 9.95975 7.93315C10.0392 7.74056 10.1645 7.57088 10.3245 7.43924C10.4845 7.30759 10.6742 7.21809 10.8767 7.17871C11.0792 7.13933 11.2882 7.15131 11.485 7.21356C11.6818 7.27582 11.8603 7.38642 12.0046 7.5355C12.1231 7.65211 12.2195 7.78976 12.2888 7.94161ZM12.7146 6.8312C12.9164 7.03188 13.0802 7.2674 13.1984 7.52609L13.2027 7.53557L13.2069 7.54515C13.3284 7.82652 13.3903 8.12999 13.3891 8.43626L13.3891 8.44367L13.389 8.45108C13.3778 9.04527 13.1369 9.61358 12.7146 10.0334C12.5075 10.2452 12.26 10.4138 11.9864 10.5288C11.7088 10.6454 11.4103 10.7042 11.109 10.7014L11.1056 10.7013C10.5061 10.6936 9.93587 10.4489 9.51583 10.0234C9.30723 9.81256 9.14231 9.56284 9.02992 9.28881C8.91759 9.01495 8.85976 8.72181 8.85943 8.42599C8.85848 8.1231 8.91931 7.82298 9.03843 7.54431C9.18039 7.20358 9.40344 6.90207 9.68911 6.66702C9.97696 6.43019 10.3193 6.26837 10.6858 6.1971C11.0523 6.12582 11.4306 6.14753 11.7866 6.26013C12.1385 6.37146 12.4569 6.56794 12.7146 6.8312ZM8.85943 8.42599C8.85943 8.42539 8.85943 8.42479 8.85943 8.42418L9.85943 8.42386L8.85944 8.4278C8.85944 8.4272 8.85944 8.4266 8.85943 8.42599ZM8.25432 11.3174C8.01435 11.0892 7.69745 10.9621 7.36817 10.9621C7.03889 10.9621 6.72199 11.0892 6.48202 11.3174C6.24616 11.5582 6.11384 11.8836 6.11384 12.2226C6.11384 12.5617 6.24616 12.8871 6.48202 13.1279C6.5983 13.2459 6.73642 13.3395 6.88847 13.4034C7.04053 13.4672 7.20354 13.5001 7.36817 13.5002C7.70003 13.4968 8.01766 13.3634 8.25432 13.1279C8.49018 12.8871 8.62251 12.5617 8.62251 12.2226C8.62251 11.8836 8.49018 11.5582 8.25432 11.3174Z" fill="black"/>
</svg>
