<svg width="32" height="32" viewBox="0 0 32 32" fill="none" xmlns="http://www.w3.org/2000/svg">
<path d="M30.546 10.5964V17.9597L15.6332 27.6568L3.36385 21.7355C0.720477 18.1269 2.59144 15.5808 3.40161 14.3617" fill="#23A094"/>
<path fill-rule="evenodd" clip-rule="evenodd" d="M30.046 17.6885V10.5964H31.046V18.231L15.6696 28.2296L3.03422 22.1316L2.96052 22.0309C1.56301 20.1232 1.32986 18.4447 1.59668 17.0581C1.83989 15.794 2.49397 14.8182 2.90114 14.2107C2.93053 14.1668 2.95864 14.1249 2.98521 14.0849L3.81806 14.6384C3.7933 14.6757 3.76785 14.7138 3.74184 14.7527C3.33152 15.3669 2.78218 16.1893 2.57867 17.247C2.37243 18.3188 2.51549 19.6844 3.69508 21.3401L15.5969 27.0841L30.046 17.6885Z" fill="#1D1D1B"/>
<path d="M30.5121 10.6207L15.6439 20.2934C15.6404 20.296 15.6362 20.2973 15.6319 20.2973C15.6276 20.2973 15.6234 20.296 15.6199 20.2934L3.40201 14.4104C3.39834 14.4088 3.39521 14.4061 3.39302 14.4027C3.39082 14.3993 3.38965 14.3953 3.38965 14.3912C3.38965 14.3872 3.39082 14.3832 3.39302 14.3798C3.39521 14.3764 3.39834 14.3737 3.40201 14.3721L17.7964 5.59802H17.817L30.5189 10.5824C30.5215 10.5852 30.5233 10.5885 30.5243 10.5921C30.5254 10.5958 30.5256 10.5996 30.5249 10.6033C30.5242 10.607 30.5227 10.6105 30.5205 10.6135C30.5183 10.6166 30.5154 10.619 30.5121 10.6207Z" fill="#23A094"/>
<path fill-rule="evenodd" clip-rule="evenodd" d="M17.656 5.09802H17.9116L30.8103 10.1596L30.8889 10.246C30.9435 10.3061 30.983 10.3776 31.005 10.4546C31.0271 10.5316 31.0312 10.6126 31.0171 10.6915C31.003 10.7702 30.971 10.8451 30.9229 10.9103C30.8834 10.9638 30.834 11.0096 30.777 11.0449L15.9203 20.7101C15.8354 20.7667 15.7351 20.7973 15.6319 20.7973C15.5468 20.7973 15.4637 20.7765 15.3895 20.7374L3.18756 14.8621C3.09929 14.8203 3.02519 14.7548 2.97293 14.6738C2.91833 14.5892 2.88965 14.491 2.88965 14.3912C2.88965 14.2914 2.91833 14.1932 2.97293 14.1086C3.01781 14.0391 3.07882 13.981 3.15107 13.9395L17.656 5.09802ZM17.8528 6.1492L29.4645 10.7057L15.597 19.7274L4.41222 14.3419L17.8528 6.1492Z" fill="#1D1D1B"/>
<path fill-rule="evenodd" clip-rule="evenodd" d="M22.183 11.9228L17.9639 10.1952L18.3428 9.26978L22.5619 10.9974L22.183 11.9228Z" fill="#1D1D1B"/>
</svg>
