<svg width="32" height="32" viewBox="0 0 32 32" fill="none" xmlns="http://www.w3.org/2000/svg">
<path d="M21.8478 18.3589C21.8478 19.3137 21.4705 20.2294 20.7989 20.9045C20.1274 21.5797 19.2165 21.9589 18.2667 21.9589H5.80664C4.85689 21.9589 3.94603 21.5797 3.27445 20.9045C2.60287 20.2294 2.22559 19.3137 2.22559 18.3589V5.83291C2.22559 4.87813 2.60287 3.96246 3.27445 3.28733C3.94603 2.61219 4.85689 2.23291 5.80664 2.23291H18.2667C19.2165 2.23291 20.1274 2.61219 20.7989 3.28733C21.4705 3.96246 21.8478 4.87813 21.8478 5.83291V18.3589Z" fill="#F39200"/>
<path fill-rule="evenodd" clip-rule="evenodd" d="M5.80664 2.73291C4.99035 2.73291 4.20695 3.05887 3.62894 3.63995C3.05083 4.22111 2.72559 5.00989 2.72559 5.83291V18.3589C2.72559 19.182 3.05083 19.9707 3.62894 20.5519C4.20695 21.133 4.99035 21.4589 5.80664 21.4589H18.2667C19.083 21.4589 19.8664 21.133 20.4445 20.5519C21.0226 19.9707 21.3478 19.182 21.3478 18.3589V5.83291C21.3478 5.00989 21.0226 4.22111 20.4445 3.63995C19.8664 3.05887 19.083 2.73291 18.2667 2.73291H5.80664ZM2.91997 2.93471C3.68511 2.16552 4.72342 1.73291 5.80664 1.73291H18.2667C19.35 1.73291 20.3883 2.16552 21.1534 2.93471C21.9185 3.70381 22.3478 4.74637 22.3478 5.83291V18.3589C22.3478 19.4455 21.9185 20.488 21.1534 21.2571C20.3883 22.0263 19.35 22.4589 18.2667 22.4589H5.80664C4.72342 22.4589 3.68511 22.0263 2.91997 21.2571C2.15492 20.488 1.72559 19.4455 1.72559 18.3589V5.83291C1.72559 4.74637 2.15492 3.70381 2.91997 2.93471Z" fill="#1D1D1B"/>
<path d="M25.3146 22.2631C25.3146 23.2178 24.9373 24.1335 24.2657 24.8086C23.5942 25.4838 22.6833 25.8631 21.7335 25.8631H9.27344C8.32368 25.8631 7.41283 25.4838 6.74125 24.8086C6.06967 24.1335 5.69238 23.2178 5.69238 22.2631V9.73702C5.69238 8.78224 6.06967 7.86657 6.74125 7.19144C7.41283 6.51631 8.32368 6.13702 9.27344 6.13702H21.7335C22.6833 6.13702 23.5942 6.51631 24.2657 7.19144C24.9373 7.86657 25.3146 8.78224 25.3146 9.73702V22.2631Z" fill="#F39200"/>
<path fill-rule="evenodd" clip-rule="evenodd" d="M9.27344 6.63702C8.45714 6.63702 7.67375 6.96299 7.09573 7.54406C6.51763 8.12522 6.19238 8.914 6.19238 9.73702V22.2631C6.19238 23.0861 6.51763 23.8749 7.09573 24.456C7.67375 25.0371 8.45714 25.3631 9.27344 25.3631H21.7335C22.5498 25.3631 23.3332 25.0371 23.9112 24.456C24.4893 23.8749 24.8146 23.0861 24.8146 22.2631V9.73702C24.8146 8.914 24.4893 8.12522 23.9112 7.54406C23.3332 6.96299 22.5498 6.63702 21.7335 6.63702H9.27344ZM6.38676 6.83882C7.15191 6.06963 8.19022 5.63702 9.27344 5.63702H21.7335C22.8168 5.63702 23.8551 6.06963 24.6202 6.83882C25.3853 7.60792 25.8146 8.65049 25.8146 9.73702V22.2631C25.8146 23.3496 25.3853 24.3922 24.6202 25.1613C23.8551 25.9304 22.8168 26.3631 21.7335 26.3631H9.27344C8.19022 26.3631 7.1519 25.9304 6.38676 25.1613C5.62171 24.3922 5.19238 23.3496 5.19238 22.2631V9.73702C5.19238 8.65049 5.62171 7.60792 6.38676 6.83882Z" fill="#1D1D1B"/>
<path d="M28.797 26.1671C28.797 26.642 28.7036 27.1121 28.5221 27.5505C28.3406 27.9889 28.0746 28.3869 27.7395 28.7215C27.4044 29.0561 27.0067 29.3207 26.5694 29.5002C26.1321 29.6797 25.6638 29.7704 25.1914 29.7671H12.7313C11.7858 29.7606 10.8813 29.3785 10.215 28.704C9.5487 28.0296 9.17478 27.1177 9.1748 26.1671V13.6411C9.17478 12.6906 9.5487 11.7786 10.215 11.1042C10.8813 10.4298 11.7858 10.0476 12.7313 10.0411H25.1914C25.6638 10.0378 26.1321 10.1286 26.5694 10.308C27.0067 10.4875 27.4044 10.7521 27.7395 11.0868C28.0746 11.4214 28.3406 11.8193 28.5221 12.2577C28.7036 12.6961 28.797 13.1663 28.797 13.6411V26.1671Z" fill="#F39200"/>
<path fill-rule="evenodd" clip-rule="evenodd" d="M26.3796 10.7706C26.0035 10.6163 25.6009 10.5383 25.1949 10.5411L25.1914 10.5411H12.7331C11.9211 10.5471 11.1438 10.8755 10.5707 11.4556C9.99713 12.0362 9.67479 12.8217 9.6748 13.6411V26.1671C9.67479 26.9865 9.99713 27.7721 10.5707 28.3526C11.1437 28.9327 11.921 29.261 12.7329 29.2671H25.1914L25.1949 29.2671C25.6009 29.2699 26.0035 29.192 26.3796 29.0376C26.7556 28.8833 27.0978 28.6557 27.3862 28.3676C27.6747 28.0796 27.9038 27.7369 28.0601 27.3592C28.2165 26.9816 28.297 26.5764 28.297 26.1671V13.6411C28.297 13.2318 28.2165 12.8267 28.0601 12.449C27.9038 12.0713 27.6747 11.7286 27.3862 11.4406C27.0978 11.1526 26.7556 10.9249 26.3796 10.7706ZM25.1898 9.5411C25.7278 9.53763 26.2612 9.64108 26.7592 9.84546C27.2578 10.0501 27.711 10.3517 28.0928 10.7329C28.4746 11.1141 28.7774 11.5674 28.9841 12.0665C29.1907 12.5655 29.297 13.1007 29.297 13.6411V26.1671C29.297 26.7075 29.1907 27.2427 28.9841 27.7418C28.7774 28.2409 28.4746 28.6941 28.0928 29.0753C27.711 29.4565 27.2578 29.7582 26.7592 29.9628C26.2612 30.1672 25.7278 30.2706 25.1897 30.2671H12.7313L12.7279 30.2671C11.6495 30.2597 10.6184 29.8238 9.85929 29.0554C9.10028 28.2871 8.67478 27.2488 8.6748 26.1671V13.6411C8.6748 13.6411 8.6748 13.6411 8.6748 13.6411C8.67478 12.5594 9.10028 11.5211 9.85929 10.7528C10.6184 9.98442 11.6495 9.54854 12.7279 9.54111L12.7313 9.54109L25.1898 9.5411Z" fill="#1D1D1B"/>
<path fill-rule="evenodd" clip-rule="evenodd" d="M15.3251 16.629C14.8663 17.7365 14.9746 19.0561 15.0907 19.8208C15.136 20.119 15.3086 20.5075 15.5561 20.9887C15.6099 21.0932 15.6671 21.2021 15.7259 21.3137C15.9194 21.6814 16.1285 22.0789 16.2798 22.4506C16.4706 22.9197 16.6351 23.4942 16.4594 24.0191C16.2627 24.6064 15.7228 24.9332 14.983 25.0722C13.8451 25.2861 12.7731 26.2008 11.9497 27.1485C11.5472 27.6118 11.2222 28.0618 10.9978 28.3962C10.8859 28.5631 10.7996 28.7003 10.7419 28.7948C10.713 28.842 10.6913 28.8785 10.6771 28.9027L10.6615 28.9295L10.6581 28.9355L10.6574 28.9366C10.6575 28.9365 10.6575 28.9364 10.2223 28.6904C9.78697 28.4444 9.78704 28.4443 9.78711 28.4441L9.7873 28.4438L9.78782 28.4429L9.78942 28.4401L9.79486 28.4306L9.8146 28.3967C9.83164 28.3676 9.85641 28.326 9.88856 28.2733C9.95283 28.1682 10.0467 28.019 10.1674 27.8391C10.4083 27.48 10.7584 26.995 11.1949 26.4926C12.0496 25.5088 13.3118 24.3688 14.7984 24.0894C15.3708 23.9819 15.4799 23.795 15.5111 23.7016C15.5633 23.5459 15.5346 23.2727 15.3535 22.8275C15.2225 22.5055 15.0464 22.1707 14.8585 21.8133C14.7955 21.6936 14.7312 21.5713 14.6668 21.4461C14.4269 20.9795 14.1753 20.4536 14.102 19.971C13.981 19.174 13.8318 17.621 14.4012 16.2463C14.6913 15.5459 15.1704 14.8861 15.9311 14.406C16.6889 13.9276 17.6896 13.6507 18.9868 13.6507V14.6507C17.8313 14.6507 17.0272 14.8967 16.4648 15.2516C15.9054 15.6047 15.549 16.0884 15.3251 16.629Z" fill="#1D1D1B"/>
<path fill-rule="evenodd" clip-rule="evenodd" d="M23.2979 16.2517C23.8639 17.6287 23.7102 19.1837 23.5849 19.9817C23.5092 20.4636 23.2557 20.9896 23.014 21.4565C22.9503 21.5798 22.8866 21.7003 22.8242 21.8184C22.6339 22.1783 22.4556 22.5156 22.3233 22.8395C22.141 23.2855 22.1126 23.5582 22.1645 23.7128C22.1953 23.8046 22.3038 23.9914 22.879 24.0973C24.3725 24.3724 25.6707 25.5486 26.556 26.5626C27.0089 27.0813 27.3751 27.5827 27.6281 27.9542C27.7549 28.1403 27.8538 28.2946 27.9216 28.4033C27.9555 28.4577 27.9816 28.5007 27.9996 28.5307L28.0203 28.5656L28.026 28.5753L28.0277 28.5781L28.0282 28.579L28.0284 28.5794C28.0285 28.5795 28.0286 28.5796 27.5958 28.8301C27.1631 29.0807 27.1632 29.0808 27.1632 29.0808L27.1632 29.0808L27.1625 29.0796L27.1587 29.0731L27.142 29.045C27.1268 29.0197 27.1037 28.9816 27.0729 28.9323C27.0115 28.8337 26.9199 28.6908 26.8017 28.5172C26.5646 28.1692 26.2227 27.7013 25.8027 27.2203C24.9425 26.235 23.8369 25.2906 22.6978 25.0808C21.9567 24.9443 21.4141 24.6194 21.2166 24.0313C21.0401 23.506 21.2058 22.9306 21.3976 22.4612C21.5504 22.0872 21.7619 21.6875 21.9574 21.3178C22.0156 21.2077 22.0724 21.1003 22.1259 20.997C22.3753 20.5149 22.55 20.1255 22.597 19.8265C22.7169 19.0629 22.8289 17.7412 22.373 16.6319C22.1504 16.0904 21.7952 15.606 21.2368 15.2525C20.6756 14.8971 19.8722 14.6507 18.7168 14.6507V13.6507C20.0141 13.6507 21.0146 13.9282 21.7718 14.4076C22.5318 14.8888 23.0095 15.5501 23.2979 16.2517Z" fill="#1D1D1B"/>
</svg>
