<svg width="64" height="64" viewBox="0 0 64 64" fill="none" xmlns="http://www.w3.org/2000/svg">
<g clip-path="url(#clip0_126_2184)">
<ellipse cx="32.0002" cy="32.3595" rx="31.6388" ry="31.6388" fill="#F8E85D"/>
<path d="M37.169 5.1689C22.3695 2.31784 8.02005 12.0316 5.16899 26.8311C2.31793 41.6306 12.0317 55.98 26.8312 58.8311C41.6307 61.6822 55.9801 51.9684 58.8312 37.1689C61.6823 22.3694 51.9685 8.01996 37.169 5.1689ZM27.68 54.4252C15.3094 52.042 7.19181 40.0504 9.57494 27.6799C11.9581 15.3093 23.9497 7.19171 36.3202 9.57485C48.6908 11.958 56.8084 23.9496 54.4252 36.3201C52.0421 48.6907 40.0505 56.8083 27.68 54.4252Z" fill="black"/>
<path d="M23.8504 28.0865C26.0341 28.5072 28.2332 26.6227 28.762 23.8774C29.2909 21.1321 27.9493 18.5655 25.7656 18.1449C23.5818 17.7242 21.3828 19.6086 20.8539 22.3539C20.325 25.0992 21.6666 27.6658 23.8504 28.0865Z" fill="black"/>
<path d="M41.0213 31.3946C43.205 31.8153 45.4041 29.9308 45.9329 27.1855C46.4618 24.4402 45.1202 21.8736 42.9365 21.453C40.7527 21.0323 38.5537 22.9167 38.0248 25.662C37.4959 28.4073 38.8375 30.9739 41.0213 31.3946Z" fill="black"/>
<path d="M43.9875 37.59C42.8842 36.323 41.2875 35.4881 39.6059 35.3985C38.7368 35.3482 38.0305 35.9737 37.9802 36.8428C37.93 37.7119 38.5555 38.4182 39.4245 38.4685C39.594 38.5011 39.8199 38.5446 39.9894 38.5773C37.6072 41.5162 33.8827 42.9076 30.0981 42.1786C26.3135 41.4495 23.3726 38.7739 22.2526 35.1604C22.4221 35.193 22.648 35.2365 22.8175 35.2692C23.643 35.5454 24.4971 35.0655 24.7624 34.2964C25.0386 33.4709 24.5587 32.6169 23.7896 32.3516C22.1386 31.7992 20.4025 31.992 18.9075 32.7584C17.4124 33.5249 16.2713 34.8868 15.7298 36.4814C15.4536 37.3069 15.9335 38.161 16.7025 38.4263C16.759 38.4372 16.8155 38.448 16.872 38.4589C17.6063 38.6004 18.393 38.1661 18.6583 37.3971C18.7692 37.1255 18.8692 36.9104 18.9692 36.6954C20.6037 41.2868 24.5547 44.8014 29.4126 45.7372C34.2704 46.673 39.2443 44.8778 42.4676 41.2223C42.537 41.47 42.5391 41.7633 42.4956 41.9892C42.4562 42.8018 42.9687 43.4864 43.7596 43.6387C43.816 43.6496 43.8725 43.6605 43.929 43.6714C44.7981 43.7216 45.5044 43.0961 45.5547 42.227C45.6443 40.5454 45.0908 38.857 43.9875 37.59Z" fill="black"/>
</g>
<defs>
<clipPath id="clip0_126_2184">
<rect width="64" height="64" fill="white"/>
</clipPath>
</defs>
</svg>
