<svg width="32" height="32" viewBox="0 0 32 32" fill="none" xmlns="http://www.w3.org/2000/svg">
<path d="M26.5001 22.24H13.4301C13.4067 24.4115 13.686 26.5756 14.2601 28.67C14.271 28.718 14.268 28.7682 14.2515 28.8146C14.2351 28.861 14.2057 28.9018 14.1669 28.9322C14.1282 28.9625 14.0816 28.9813 14.0326 28.9862C13.9836 28.9912 13.9341 28.9821 13.8901 28.96C10.0001 27 9.51011 24.57 8.56011 22.24H5.90011C5.13098 22.24 4.39335 21.9345 3.8495 21.3906C3.30564 20.8467 3.00011 20.1091 3.00011 19.34V5.89999C2.99653 5.48497 3.08207 5.074 3.25097 4.69488C3.41986 4.31575 3.66817 3.9773 3.97911 3.70238C4.29005 3.42746 4.65637 3.22249 5.05334 3.10132C5.4503 2.98015 5.86864 2.94559 6.28011 2.99999L26.8801 5.70999C27.5825 5.80062 28.2272 6.14602 28.6918 6.68063C29.1563 7.21523 29.4084 7.9018 29.4001 8.60999V19.34C29.4001 20.1091 29.0946 20.8467 28.5507 21.3906C28.0069 21.9345 27.2692 22.24 26.5001 22.24V22.24Z" fill="#FDC751"/>
<path fill-rule="evenodd" clip-rule="evenodd" d="M6.21457 3.49566C5.87405 3.45064 5.52783 3.47923 5.19931 3.57952C4.87079 3.6798 4.56762 3.84943 4.3103 4.07694C4.05297 4.30446 3.84747 4.58456 3.7077 4.89832C3.56792 5.21208 3.49713 5.55219 3.50009 5.89566L3.50013 5.89997L3.50011 19.34C3.50011 19.9765 3.75296 20.5869 4.20305 21.037C4.65314 21.4871 5.26359 21.74 5.90011 21.74H8.89621L9.0231 22.0512C9.14825 22.3581 9.26278 22.6581 9.37522 22.9526C9.709 23.8267 10.0244 24.6527 10.5445 25.4704C11.1602 26.4383 12.0654 27.3863 13.6361 28.26C13.1457 26.2904 12.9082 24.2656 12.9301 22.2346L12.9355 21.74H26.5001C27.1366 21.74 27.7471 21.4871 28.1972 21.037C28.6473 20.5869 28.9001 19.9765 28.9001 19.34V8.60413C28.9069 8.01846 28.6985 7.45067 28.3143 7.00856C27.9302 6.56646 27.397 6.28081 26.8161 6.20586L26.8149 6.2057L6.21457 3.49566ZM6.34564 2.50429C6.34571 2.5043 6.34557 2.50428 6.34564 2.50429L26.9441 5.21408C26.9443 5.21411 26.9439 5.21406 26.9441 5.21408C27.7678 5.3205 28.5244 5.7257 29.0692 6.35264C29.6134 6.97897 29.9091 7.78312 29.9001 8.61276V19.34C29.9001 20.2417 29.5419 21.1065 28.9043 21.7441C28.2666 22.3818 27.4018 22.74 26.5001 22.74H13.9301C13.9513 24.6987 14.2241 26.6473 14.7423 28.5378L14.7453 28.5485L14.7477 28.5593C14.7796 28.6997 14.7709 28.8463 14.7227 28.982C14.6745 29.1177 14.5887 29.2368 14.4754 29.3257C14.3621 29.4145 14.2258 29.4693 14.0826 29.4837C13.9393 29.4981 13.7949 29.4715 13.6662 29.407L13.6651 29.4065C11.6454 28.3889 10.48 27.2322 9.70072 26.0071C9.12109 25.0958 8.75633 24.1392 8.41461 23.2431C8.34973 23.073 8.28569 22.905 8.22116 22.74H5.90011C4.99837 22.74 4.13357 22.3818 3.49594 21.7441C2.85832 21.1065 2.50011 20.2417 2.50011 19.34V5.90205C2.49624 5.41622 2.59653 4.9352 2.79424 4.49139C2.99225 4.0469 3.28337 3.65009 3.64792 3.32777C4.01247 3.00546 4.44196 2.76515 4.90736 2.62308C5.37269 2.48104 5.86331 2.44055 6.34564 2.50429Z" fill="#1D1D1B"/>
</svg>
