<svg width="32" height="32" viewBox="0 0 32 32" fill="none" xmlns="http://www.w3.org/2000/svg">
<path d="M16.0006 31.36C24.4837 31.36 31.3606 24.483 31.3606 16C31.3606 7.51686 24.4837 0.639954 16.0006 0.639954C7.51753 0.639954 0.640625 7.51686 0.640625 16C0.640625 24.483 7.51753 31.36 16.0006 31.36Z" fill="#83CABE"/>
<path fill-rule="evenodd" clip-rule="evenodd" d="M16.0006 1.13995C7.79367 1.13995 1.14062 7.793 1.14062 16C1.14062 24.2069 7.79367 30.86 16.0006 30.86C24.2076 30.86 30.8606 24.2069 30.8606 16C30.8606 7.793 24.2076 1.13995 16.0006 1.13995ZM0.140625 16C0.140625 7.24072 7.24139 0.139954 16.0006 0.139954C24.7599 0.139954 31.8606 7.24072 31.8606 16C31.8606 24.7592 24.7599 31.86 16.0006 31.86C7.24139 31.86 0.140625 24.7592 0.140625 16Z" fill="#1D1D1B"/>
<path fill-rule="evenodd" clip-rule="evenodd" d="M10.0302 10.7886C10.3954 9.90496 10.9742 9.10597 11.8891 8.52231C12.8112 7.93408 14.1134 7.53998 15.9626 7.53998V6.53998C13.9717 6.53998 12.4708 6.96507 11.3513 7.67925C10.2289 8.39524 9.52878 9.37708 9.10005 10.4213L9.09489 10.4338L9.09042 10.4467C8.45899 12.2589 8.31112 14.2044 8.66137 16.0912L8.66837 16.1289L8.68104 16.1651C9.20413 17.6598 9.85324 19.1072 10.6214 20.4919C10.9026 21.1842 10.983 21.686 10.8693 22.025C10.7757 22.3043 10.4865 22.633 9.53794 22.8039L9.51589 22.8079L9.49427 22.8138C7.32574 23.4088 5.40941 24.6927 4.03418 26.4718L4.82537 27.0834C6.06356 25.4815 7.78721 24.324 9.73805 23.7839C10.8375 23.5813 11.5577 23.1175 11.8174 22.343C12.0575 21.6271 11.8342 20.8126 11.5355 20.0852L11.5243 20.0579L11.5099 20.0322C10.7694 18.7006 10.1431 17.3086 9.6377 15.8713C9.32886 14.1717 9.464 12.4209 10.0302 10.7886Z" fill="#1D1D1B"/>
<path fill-rule="evenodd" clip-rule="evenodd" d="M20.2158 7.67925C21.3382 8.39524 22.0383 9.37708 22.467 10.4213L22.4724 10.4342L22.4769 10.4475C23.1052 12.2608 23.2485 14.2069 22.8926 16.0927L22.886 16.1278L22.8745 16.1616C22.3632 17.6583 21.7151 19.1048 20.9384 20.4825C20.6879 21.2024 20.6189 21.6999 20.7381 22.036C20.8361 22.3122 21.1264 22.6321 22.0803 22.8039L22.1046 22.8083L22.1284 22.815C24.335 23.4423 26.2827 24.7596 27.6864 26.574L26.8954 27.1859C25.6273 25.5467 23.8696 24.3549 21.8779 23.7835C20.7851 23.5819 20.0668 23.1347 19.7957 22.3703C19.5459 21.6663 19.7473 20.8515 20.0099 20.1086L20.0245 20.0671L20.0462 20.0289C20.7962 18.7039 21.4223 17.3125 21.9165 15.8724C22.2308 14.1734 22.1001 12.4219 21.5367 10.7882C21.1715 9.90472 20.5928 9.10588 19.678 8.52231C18.7559 7.93408 17.4537 7.53998 15.6045 7.53998V6.53998C17.5953 6.53998 19.0963 6.96507 20.2158 7.67925Z" fill="#1D1D1B"/>
</svg>
