<svg width="109" height="55" viewBox="0 0 109 55" fill="none" xmlns="http://www.w3.org/2000/svg">
<path d="M74.6659 44.6493C73.2858 44.8673 71.8735 44.7493 70.5488 44.3051C69.1821 45.1133 67.6694 45.6439 66.0973 45.8666C63.2687 46.2685 61.0611 45.8149 59.3879 45.0602C57.9571 46.434 56.1226 47.3115 54.1551 47.5632C52.7707 47.7842 51.3534 47.6668 50.0243 47.221C48.6575 48.0292 47.1448 48.5598 45.5727 48.7825C40.8779 49.4495 37.8932 47.7621 36.2201 46.2402C36.0586 46.0942 35.8986 45.934 35.7342 45.7673C35.6498 45.8919 35.5383 46.0731 35.4238 46.2583C34.5481 47.6742 32.7321 50.6209 28.1477 51.2722C25.4537 51.6549 23.5162 51.1208 22.1111 50.1978C20.9148 51.4622 19.1342 52.5527 16.4573 52.933C9.21337 53.9622 7.46409 48.3126 6.88361 46.456L6.75483 46.045C5.99748 43.5132 4.28925 38.3013 3.38169 35.6782C2.29276 32.4722 2.52083 29.3711 4.02408 26.9229C4.67883 25.8674 5.55887 24.9697 6.6012 24.2941C7.64353 23.6186 8.82234 23.1818 10.0532 23.0152C11.8286 22.7096 13.6542 22.9179 15.3151 23.6155C16.6481 22.5319 18.2543 21.8373 19.9568 21.6082C21.5159 21.3867 23.7086 21.3884 25.7156 22.5109C27.2615 21.1667 29.1634 20.2989 31.1918 20.0121C32.7268 19.771 34.2981 19.9322 35.7522 20.4797C37.1442 19.4976 38.7594 18.8786 40.4513 18.679C42.4381 18.3548 44.476 18.7183 46.2283 19.7093C47.6857 18.2731 49.574 17.3546 51.6036 17.0946C53.1765 16.8367 54.7897 16.9984 56.2802 17.5633C57.6651 16.5883 59.2708 15.9732 60.9527 15.7734C62.9395 15.4492 64.9775 15.8127 66.7297 16.8037C68.1871 15.3675 70.0754 14.449 72.105 14.189C73.1016 14.0348 74.1159 14.0331 75.1131 14.1839C76.4246 7.95876 81.5916 3.23399 88.8701 2.19994C97.4352 0.983089 103.74 5.63 104.935 14.0399C105.449 17.655 104.592 21.1867 103.222 24.2741C104.118 24.9377 104.87 25.7774 105.43 26.7415C105.991 27.7057 106.348 28.7742 106.482 29.8815C107.324 35.8112 103.651 40.4011 97.3386 41.2979C95.1599 41.6266 92.9375 41.5189 90.8008 40.981C89.1957 42.0515 87.3644 42.7357 85.4506 42.9798C83.5024 43.2803 81.5094 43.0608 79.6733 42.3437C78.2758 43.601 76.5298 44.405 74.6659 44.6493V44.6493Z" fill="url(#paint0_linear_114_730)" stroke="#1D1D1B" stroke-miterlimit="10"/>
<path d="M21.5934 38.6792C20.7782 40.1858 20.1 41.7627 19.5671 43.3906C19.0035 45.1951 18.8463 47.1107 15.7245 47.5542C12.8959 47.9561 12.6746 46.696 11.9678 44.4703C11.1515 41.7463 9.41868 36.4358 8.52978 33.8946C7.49591 30.8531 8.64911 28.6658 10.843 28.3541C12.9541 28.0542 14.2654 28.5154 14.7356 31.5032C15.0951 33.736 15.4141 35.9817 15.9825 38.1743C16.913 35.9306 17.8993 34.3265 18.4405 32.1417C18.086 31.1574 17.7239 31.0364 17.7525 29.776C17.8046 28.6073 18.6862 27.2328 20.7525 26.9392C22.8187 26.6457 24.0507 27.1181 24.8445 30.2782C25.5159 32.8307 26.3881 35.3262 27.4532 37.7411C29.0596 35.1023 30.008 32.6872 29.4364 31.3889C29.0055 30.4612 28.5015 29.7621 28.3687 28.8273C28.0746 26.7576 30.5318 25.5499 31.9668 25.346C34.5402 24.9804 35.807 26.9119 36.101 28.9816C36.7606 33.6246 33.277 40.0176 31.4658 42.4287C30.3797 43.8745 30.0532 45.515 27.3833 45.8943C24.5961 46.2903 24.298 45.0834 23.5439 42.8221C23.3286 42.1243 22.2399 39.9106 21.5934 38.6792ZM49.1914 32.295C49.2275 30.7414 48.9909 28.4067 49.0086 27.0704C49.0595 24.9517 49.4884 22.8673 52.3583 22.4595C55.4388 22.0219 55.9998 24.1381 55.8995 26.4785C55.863 27.733 55.4374 30.8058 55.3956 33.2365C55.3538 35.6671 56.0858 36.5836 56.3901 38.7258C56.6063 40.247 55.7605 41.8734 53.3976 42.2091C51.2899 42.5085 50.259 41.3212 50.1132 39.4029C49.6386 40.4616 48.9064 41.3845 47.9833 42.0874C47.0602 42.7902 45.9758 43.2506 44.829 43.4264C40.2308 44.0797 37.682 41.2992 37.9701 35.7473C38.0568 33.8804 38.5834 31.5674 38.6933 29.6163C38.7479 28.4894 38.3113 28.4635 38.0957 26.9457C37.8918 25.5107 38.8944 24.3688 41.2021 24.041C43.7755 23.6754 45.2725 25.444 44.9836 28.2405C44.8585 29.4653 44.3987 31.3817 44.2752 33.1623C44.0805 35.7308 44.8951 36.9066 46.2439 36.715C47.8444 36.4876 49.1003 35.3203 49.1879 32.2955L49.1914 32.295ZM69.7021 29.381C69.7383 27.8275 69.5016 25.4927 69.5194 24.1564C69.5703 22.0377 69.9991 19.9533 72.8691 19.5456C75.9495 19.1079 76.5072 21.2246 76.4103 23.5646C76.3738 24.819 75.9482 27.8919 75.9064 30.3225C75.8646 32.7531 76.5966 33.6697 76.9009 35.8118C77.1171 37.3331 76.2713 38.9594 73.9083 39.2951C71.7972 39.595 70.7698 38.4072 70.624 36.4889C70.1494 37.5476 69.4172 38.4706 68.4941 39.1734C67.571 39.8763 66.4866 40.3366 65.3398 40.5124C60.7416 41.1657 58.1928 38.3852 58.4809 32.8333C58.5676 30.9664 59.0907 28.6539 59.2041 26.7023C59.2586 25.5755 58.8221 25.5495 58.6065 24.0317C58.4026 22.5967 59.4052 21.4549 61.7129 21.127C64.2863 20.7614 65.7833 22.53 65.4944 25.3265C65.3693 26.5514 64.9061 28.4682 64.786 30.2484C64.5879 32.8173 65.3886 33.9951 66.7684 33.7991C68.3552 33.5736 69.6111 32.4063 69.6987 29.3815L69.7021 29.381ZM84.6936 37.6291C82.0754 38.0011 79.4258 36.9135 78.9524 33.5813C78.4486 30.0352 80.2566 26.7097 84.0545 26.1701C85.3209 25.9805 86.6144 26.2219 87.7273 26.8554C90.745 23.3263 93.5797 20.1681 93.072 16.5944C92.7721 14.4833 91.3561 13.6076 89.4589 13.8771C87.641 14.1354 86.4777 15.3353 86.6512 16.5564C86.8134 17.6982 87.6578 17.2756 87.844 18.5864C88.1435 20.6941 86.9543 22.232 84.7052 22.5515C82.0456 22.9293 80.6946 21.5693 80.3227 18.9512C79.4895 13.087 83.435 8.43371 89.6372 7.55257C95.2082 6.7611 98.8183 9.43302 99.5799 14.7936C100.275 19.6884 97.1229 25.3904 93.2215 29.7347C93.8893 30.1994 94.6541 30.133 95.8372 29.9649C97.355 29.7493 97.5314 28.5629 98.7973 28.383C100.063 28.2032 100.924 29.1119 101.141 30.6332C101.578 33.7136 99.8044 35.4718 96.5964 35.9275C93.0089 36.4372 91.1718 35.3222 89.5284 34.9504C88.3971 36.1528 87.1388 37.2782 84.6896 37.6262L84.6936 37.6291ZM84.9353 30.8345C84.7998 30.8565 84.6699 30.905 84.5532 30.9772C84.4364 31.0494 84.335 31.1439 84.2547 31.2553C84.1745 31.3667 84.1169 31.4928 84.0854 31.6265C84.0539 31.7601 84.0491 31.8986 84.0711 32.0341C84.1251 32.4136 84.3382 32.7 84.8867 32.6221C85.1629 32.5812 85.4138 32.4385 85.5901 32.222C85.7664 32.0055 85.8554 31.7309 85.8395 31.4521C85.8292 31.3478 85.7962 31.247 85.7427 31.1568C85.6893 31.0666 85.6168 30.9892 85.5302 30.93C85.4436 30.8709 85.3452 30.8314 85.2417 30.8144C85.1383 30.7974 85.0323 30.8032 84.9314 30.8316L84.9353 30.8345Z" fill="white" stroke="#1D1D1B" stroke-miterlimit="10"/>
<defs>
<linearGradient id="paint0_linear_114_730" x1="4" y1="41.5" x2="105.5" y2="24" gradientUnits="userSpaceOnUse">
<stop stop-color="#9F79B4"/>
<stop offset="1" stop-color="#769FED"/>
</linearGradient>
</defs>
</svg>
