<?xml version="1.0" standalone="no"?>
<!DOCTYPE svg PUBLIC "-//W3C//DTD SVG 20010904//EN"
 "http://www.w3.org/TR/2001/REC-SVG-20010904/DTD/svg10.dtd">
<svg version="1.0" xmlns="http://www.w3.org/2000/svg"
 width="300.000000pt" height="300.000000pt" viewBox="0 0 300.000000 300.000000"
 preserveAspectRatio="xMidYMid meet">
<metadata>
Created by potrace 1.14, written by Peter Selinger 2001-2017
</metadata>
<g transform="translate(0.000000,300.000000) scale(0.100000,-0.100000)"
fill="#000000" stroke="none">
<path d="M1336 2984 c-239 -43 -444 -152 -608 -322 -195 -202 -284 -435 -276
-717 3 -109 8 -142 30 -203 33 -90 94 -186 158 -246 46 -43 48 -46 43 -90 -3
-25 0 -88 6 -140 l12 -94 -36 -48 c-123 -161 -182 -413 -141 -603 52 -246 246
-442 492 -497 104 -23 280 -15 379 16 270 85 476 301 542 565 25 103 23 289
-5 374 -12 37 -18 70 -13 75 5 6 18 38 31 72 20 57 26 63 85 98 100 58 216
149 286 223 191 203 273 445 248 737 -11 128 -32 203 -89 322 -151 312 -507
496 -948 493 -64 0 -153 -7 -196 -15z m432 -459 c130 -31 243 -106 297 -200
50 -85 70 -255 41 -360 -42 -160 -132 -254 -376 -394 -69 -40 -142 -90 -164
-112 -38 -40 -38 -42 -33 -97 12 -114 -41 -160 -197 -169 -91 -5 -133 10 -170
60 -17 24 -21 43 -21 115 0 162 57 234 282 357 148 81 234 156 252 221 29 103
2 193 -69 233 -52 29 -147 29 -208 0 -78 -38 -127 -132 -105 -204 20 -64 -40
-161 -115 -186 -46 -15 -158 -7 -200 15 -138 71 -92 385 82 559 91 91 220 154
361 177 78 12 263 4 343 -15z m-359 -1563 c44 -20 88 -83 96 -137 15 -100 -41
-230 -128 -296 -53 -40 -103 -58 -181 -66 -192 -20 -286 149 -191 343 71 145
266 220 404 156z"/>
</g>
</svg>
